# xmcd
#
# Track frame offsets: 
#        150
#        10723
#        37823
#        57495
#        80914
#        109095
#        147362
#        188483
#        215822
#        254557
#        274057
#        303553
#
# Disc length: 4323 seconds
#
# Revision: 0
# Processed by: cddbd v1.5.2PL0 Copyright (c) Steve Scherf et al.
# Submitted via: ExactAudioCopy v0.95b4
#
DISCID=ae10e10c
DTITLE=Eric Clapton - I Look Wonderful Tonight - CD1
DYEAR=2001
DGENRE=Blues
TTITLE0=Key To The Highway
TTITLE1=Reptile
TTITLE2=Tears In Heaven
TTITLE3=Bell Bottom Blues
TTITLE4=Change The World
TTITLE5=My Father's Eyes
TTITLE6=River Of Tears
TTITLE7=Going Down Slow
TTITLE8=She's Gone
TTITLE9=Got You On My Mind
TTITLE10=Don't let Me Be Lonely Tonight
TTITLE11=Travelin' Light
EXTD=
EXTT0=
EXTT1=
EXTT2=
EXTT3=
EXTT4=
EXTT5=
EXTT6=
EXTT7=
EXTT8=
EXTT9=
EXTT10=
EXTT11=
PLAYORDER=
